<svg xmlns="http://www.w3.org/2000/svg" viewBox="0 0 48 48" width="50px" height="50px" baseProfile="basic">
  <linearGradient id="-XFXNP175aOlpKuDDanEOa" x1="-2.865" x2="58.767" y1="48.011" y2="12.427" gradientUnits="userSpaceOnUse">
    <stop offset="0" stop-color="#262626" stop-opacity="0" />
    <stop offset="1" stop-color="#262626" stop-opacity=".8" />
  </linearGradient>
  <path fill="url(#-XFXNP175aOlpKuDDanEOa)" d="M42,39c0,3.3-2.7,6-6,6H6V26c0-3.3,2.7-6,6-6h30V39z" />
  <linearGradient id="-XFXNP175aOlpKuDDanEOb" x1="37.673" x2="19.381" y1="-21.215" y2="29.042" gradientUnits="userSpaceOnUse">
    <stop offset="0" stop-color="#262626" stop-opacity="0" />
    <stop offset="1" stop-color="#262626" stop-opacity=".8" />
  </linearGradient>
  <path fill="url(#-XFXNP175aOlpKuDDanEOb)" d="M37,15v5h-6v-5c0-3.86-3.14-7-7-7s-7,3.14-7,7v5h-5c-0.34,0-0.67,0.03-1,0.09V15 c0-7.17,5.83-13,13-13S37,7.83,37,15z" />
  <linearGradient id="-XFXNP175aOlpKuDDanEOc" x1="7.252" x2="32.621" y1="16.924" y2="42.293" gradientUnits="userSpaceOnUse">
    <stop offset="0" stop-color="#262626" stop-opacity="0" />
    <stop offset="1" stop-color="#262626" stop-opacity=".8" />
  </linearGradient>
  <path fill="url(#-XFXNP175aOlpKuDDanEOc)" d="M28,31c0-2.522-2.334-4.499-4.96-3.888c-1.418,0.33-2.572,1.471-2.917,2.885 c-0.462,1.889,0.424,3.603,1.877,4.449V40h1.5c1.381,0,2.5-1.119,2.5-2.5v-3.055C27.191,33.752,28,32.477,28,31z" />
</svg>